<?xml version="1.0" encoding="UTF-8" standalone="no"?>
<!-- Created with Inkscape (http://www.inkscape.org/) -->

<svg
   version="1.1"
   id="svg14376"
   width="1238.8931"
   height="883.97388"
   viewBox="0 0 1238.8931 883.97384"
   sodipodi:docname="money.svg"
   inkscape:version="1.2.2 (b0a8486, 2022-12-01)"
   xmlns:inkscape="http://www.inkscape.org/namespaces/inkscape"
   xmlns:sodipodi="http://sodipodi.sourceforge.net/DTD/sodipodi-0.dtd"
   xmlns="http://www.w3.org/2000/svg"
   xmlns:svg="http://www.w3.org/2000/svg">
  <defs
     id="defs14380">
    <rect
       x="1501.0562"
       y="1400.731"
       width="358.93692"
       height="600.55316"
       id="rect21471" />
  </defs>
  <sodipodi:namedview
     id="namedview14378"
     pagecolor="#505050"
     bordercolor="#eeeeee"
     borderopacity="1"
     inkscape:showpageshadow="0"
     inkscape:pageopacity="0"
     inkscape:pagecheckerboard="0"
     inkscape:deskcolor="#505050"
     showgrid="false"
     inkscape:zoom="0.70799997"
     inkscape:cx="668.78534"
     inkscape:cy="383.47459"
     inkscape:window-width="1850"
     inkscape:window-height="1136"
     inkscape:window-x="70"
     inkscape:window-y="27"
     inkscape:window-maximized="1"
     inkscape:current-layer="g14386">
    <inkscape:page
       x="0"
       y="0"
       id="page14382"
       width="1238.8931"
       height="883.97382"
       inkscape:export-filename="money.png"
       inkscape:export-xdpi="96"
       inkscape:export-ydpi="96" />
  </sodipodi:namedview>
  <g
     id="g14384"
     inkscape:groupmode="layer"
     inkscape:label="Page 1"
     transform="matrix(1.3333333,0,0,-1.3333333,-929.61957,835.47277)">
    <g
       id="g14386"
       transform="scale(0.1)">
      <rect
         style="fill:none;stroke:none;stroke-width:96.312;stroke-linecap:round;stroke-linejoin:round"
         id="rect398"
         width="9291.6982"
         height="6629.8042"
         x="6972.147"
         y="-6266.0459"
         transform="scale(1,-1)" />
      <g
         id="g15592"
         transform="matrix(1.4343862,0,0,1.4343862,-4245.7435,-10164.119)">
        <path
           d="m 10672.5,8950.7 c 255,-632.6 -51.1,-1352.1 -683.68,-1607.1 -632.58,-254.9 -1352.08,51.2 -1607.07,683.7 -254.98,632.6 51.13,1352.1 683.7,1607.1 632.58,255 1352.05,-51.1 1607.05,-683.7"
           style="fill:#f4a640;fill-opacity:1;fill-rule:nonzero;stroke:none"
           id="path14722" />
        <path
           d="m 10557.3,8904.2 c 229.3,-568.9 -46,-1216 -614.93,-1445.3 -568.93,-229.3 -1216.03,46 -1445.35,614.9 -229.33,568.9 45.97,1216 614.89,1445.3 568.92,229.4 1215.99,-45.9 1445.39,-614.9"
           style="fill:#f9cc4b;fill-opacity:1;fill-rule:nonzero;stroke:none"
           id="path14724" />
        <path
           d="m 9152.68,9418 c -512.24,-206.5 -760.99,-791.2 -554.52,-1303.4 206.47,-512.3 791.2,-761 1303.43,-554.6 512.21,206.5 761.01,791.2 554.51,1303.5 -206.5,512.2 -791.18,761 -1303.42,554.5 m 763.2,-1893.4 c -531.79,-214.3 -1138.8,43.9 -1353.16,575.7 -214.35,531.8 43.9,1138.8 575.68,1353.1 531.78,214.4 1138.8,-43.9 1353.2,-575.6 214.3,-531.8 -43.9,-1138.8 -575.72,-1353.2"
           style="fill:#f4a640;fill-opacity:1;fill-rule:nonzero;stroke:none"
           id="path14726" />
        <path
           d="m 9757.26,7781.7 c -13.67,33.9 -27.18,67.5 -40.43,100.3 -40.88,-9.2 -78.9,-13.4 -114.17,-13.4 -188.47,0 -298.84,120 -351.71,226.4 63.1,33.8 126.28,67.7 191.09,102.5 48.28,-65.1 106.64,-109.5 197.01,-123.8 -19.4,48.1 -36.11,89.6 -52.84,131.1 -22.84,56.6 -46.65,112.9 -68.08,170.1 -7.2,19.2 -16.38,27.2 -35.4,27.2 -1.86,0 -3.8,-0.1 -5.84,-0.2 -17.33,-1.3 -34.62,-2 -51.84,-2 -55.92,0 -111.04,7.6 -164.03,29.7 -140.35,58.6 -206.54,174 -220.98,316.1 -13.49,132.8 50.02,235.2 161.85,307.2 7.46,4.8 15.01,9.4 22.36,14.4 2.71,1.9 4.97,4.4 9.64,8.6 -10.72,26.6 -21.75,54 -33.77,83.8 37.98,15.3 73.39,29.5 113.37,45.7 8.02,-20 17.59,-39.8 23.97,-60.6 5.03,-16.4 12.86,-22.3 25.31,-22.3 4.28,0 9.11,0.7 14.56,1.9 30.25,6.8 60.06,10.4 89.3,10.4 62.5,0 122.37,-16.6 178.34,-55 43.41,-29.7 77.96,-67.8 106.38,-117.3 -62.51,-35.4 -122.9,-69.6 -186.3,-105.6 -36.34,48.2 -77.29,83.3 -141.57,86.5 2.03,-9.2 2.59,-16.4 5.16,-22.8 34.76,-86.6 70.35,-172.9 104.33,-259.8 6.57,-16.8 14.46,-22.2 30.21,-22.2 2.09,0 4.33,0.1 6.71,0.3 34,2.5 68.21,4 102.35,4 13.48,0 26.94,-0.3 40.38,-0.8 166.85,-6.1 266.46,-106.8 307.78,-257.5 49.7,-181.6 -5,-319.8 -161.12,-426.9 -28.48,-19.6 -32.06,-36.6 -17.54,-64.7 10.56,-20.4 17.66,-42.7 27.18,-66.3 -37.54,-15.1 -72.9,-29.4 -111.66,-45 m -86.9,634.2 c -11.32,0 -23.04,-0.8 -35.13,-2.5 41.08,-101.9 81.01,-200.9 120.99,-300.1 66.41,34.5 97.3,118.2 73.4,196.1 -20.48,66.7 -79.64,106.5 -159.26,106.5 m -366.64,481.8 c -53.29,-51.9 -70.09,-123.7 -44.71,-177.1 25.47,-53.7 81.1,-89.2 135.46,-89.3 5.41,0 10.81,0.4 16.17,1.1 -35.05,87 -70.18,174.1 -106.92,265.3"
           style="fill:#fce3a5;fill-opacity:1;fill-rule:nonzero;stroke:none"
           id="path14728" />
      </g>
      <g
         id="g15508"
         style="display:none">
        <path
           d="M 10603.5,3053.8 H 8124.41 v 1049 h 2479.09 v -1049"
           style="fill:#feb546;fill-opacity:1;fill-rule:nonzero;stroke:none"
           id="path14576" />
        <path
           d="M 8124.41,3053.8 H 5645.32 v 1049 h 2479.09 v -1049"
           style="fill:#f9c27a;fill-opacity:1;fill-rule:nonzero;stroke:none"
           id="path14578" />
        <path
           d="M 5664.74,3084.6 H 13063.2 V 4072 H 5664.74 Z M 13102,3023 H 5625.9 V 4133.7 H 13102 V 3023"
           style="fill:#e2881e;fill-opacity:1;fill-rule:nonzero;stroke:none"
           id="path14580" />
        <path
           d="M 10983.3,2004.8 H 8504.19 v 1049 h 2479.11 v -1049"
           style="fill:#feb546;fill-opacity:1;fill-rule:nonzero;stroke:none"
           id="path14584" />
        <path
           d="m 13462.4,2004.8 h -2479.1 v 1049 h 2479.1 v -1049"
           style="fill:#f4a640;fill-opacity:1;fill-rule:nonzero;stroke:none"
           id="path14582" />
        <path
           d="m 13462.4,5151.9 h -2479.1 v 1049 h 2479.1 v -1049"
           style="display:inline;fill:#f4a640;fill-opacity:1;fill-rule:nonzero;stroke:none"
           id="path14566" />
        <path
           d="M 10983.3,5151.9 H 8504.19 v 1049 h 2479.11 v -1049"
           style="display:inline;fill:#feb546;fill-opacity:1;fill-rule:nonzero;stroke:none"
           id="path14568" />
        <path
           d="m 8504.19,5151.9 h -2479.1 v 1049 h 2479.1 v -1049"
           style="display:inline;fill:#f9c27a;fill-opacity:1;fill-rule:nonzero;stroke:none"
           id="path14570" />
        <path
           d="m 6044.52,5182.7 h 7398.38 v 987.4 H 6044.52 Z m 7437.28,-61.6 H 6005.68 V 6231.8 H 13481.8 V 5121.1"
           style="display:inline;fill:#e2881e;fill-opacity:1;fill-rule:nonzero;stroke:none"
           id="path14572" />
        <path
           d="m 13082.6,3053.8 h -2479.1 v 1049 h 2479.1 v -1049"
           style="display:inline;fill:#f4a640;fill-opacity:1;fill-rule:nonzero;stroke:none"
           id="path14574" />
        <path
           d="m 8504.19,2004.8 h -2479.1 v 1049 h 2479.1 v -1049"
           style="fill:#f9c27a;fill-opacity:1;fill-rule:nonzero;stroke:none"
           id="path14586" />
        <path
           d="M 6044.52,2035.6 H 13442.9 V 3023 H 6044.52 Z m 7437.28,-61.7 H 6005.68 V 3084.6 H 13481.8 V 1973.9"
           style="display:inline;fill:#e2881e;fill-opacity:1;fill-rule:nonzero;stroke:none"
           id="path14588" />
        <path
           d="M 14060.8,955.699 H 11581.7 V 2004.7 h 2479.1 V 955.699"
           style="display:inline;fill:#f4a640;fill-opacity:1;fill-rule:nonzero;stroke:none"
           id="path14590" />
        <path
           d="M 11581.7,955.699 H 9102.62 V 2004.7 H 11581.7 V 955.699"
           style="fill:#feb546;fill-opacity:1;fill-rule:nonzero;stroke:none"
           id="path14592" />
        <path
           d="M 9102.62,955.699 H 6623.53 V 2004.7 H 9102.62 V 955.699"
           style="fill:#f9c27a;fill-opacity:1;fill-rule:nonzero;stroke:none"
           id="path14594" />
        <path
           d="m 6642.95,986.5 h 7398.45 v 987.4 H 6642.95 Z M 14080.2,924.801 H 6604.11 V 2035.6 H 14080.2 V 924.801"
           style="display:inline;fill:#e2881e;fill-opacity:1;fill-rule:nonzero;stroke:none"
           id="path14596" />
        <path
           d="m 13870.9,4102.9 h -2479.1 v 1049 h 2479.1 v -1049"
           style="fill:#f4a640;fill-opacity:1;fill-rule:nonzero;stroke:none"
           id="path14598" />
        <path
           d="M 11391.8,4102.9 H 8912.73 v 1049 h 2479.07 v -1049"
           style="fill:#feb546;fill-opacity:1;fill-rule:nonzero;stroke:none"
           id="path14600" />
        <path
           d="M 8912.73,4102.9 H 6433.64 v 1049 h 2479.09 v -1049"
           style="display:inline;fill:#f9c27a;fill-opacity:1;fill-rule:nonzero;stroke:none"
           id="path14602" />
        <path
           d="m 6453.07,4133.7 h 7398.43 v 987.4 H 6453.07 Z M 13890.3,4072 H 6414.22 V 5182.7 H 13890.3 V 4072"
           style="display:inline;fill:#e2881e;fill-opacity:1;fill-rule:nonzero;stroke:none"
           id="path14604" />
      </g>
      <g
         id="g15421"
         style="display:inline"
         transform="translate(-2537.0419,-6.4497826)">
        <path
           d="m 18124.867,2986.5924 c 16,-1496.9 -1184.5,-2723.39804 -2681.4,-2739.39804 -1496.9,-16 -2723.4,1184.59804 -2739.3,2681.49804 -16,1496.9 1184.5,2723.3 2681.4,2739.3 1496.9,16 2723.3,-1184.5 2739.3,-2681.4"
           style="display:inline;fill:#f4a640;fill-opacity:1;fill-rule:nonzero;stroke:none"
           id="path14474" />
        <path
           d="m 17852.167,2983.6924 c 14.3,-1346.3 -1065.4,-2449.30003 -2411.6,-2463.70003 -1346.3,-14.4 -2449.3,1065.30003 -2463.7,2411.60003 -14.4,1346.2 1065.3,2449.3 2411.6,2463.6 1346.2,14.4 2449.3,-1065.3 2463.7,-2411.5"
           style="display:inline;fill:#f9cc4b;fill-opacity:1;fill-rule:nonzero;stroke:none"
           id="path14476" />
        <path
           d="m 15390.967,5155.8924 c -1212.1,-12.9 -2187.7,-1009.6 -2174.8,-2221.8 13,-1212.1 1009.7,-2187.70004 2221.8,-2174.80004 1212.2,13 2187.8,1009.70004 2174.8,2221.80004 -12.9,1212.1 -1009.6,2187.8 -2221.8,2174.8 m 47.9,-4480.40004 c -1258.4,-13.5 -2293.1,999.40004 -2306.5,2257.70004 -13.5,1258.4 999.4,2293.1 2257.7,2306.6 1258.4,13.4 2293.1,-999.4 2306.6,-2257.8 13.4,-1258.4 -999.4,-2293.10004 -2257.8,-2306.50004"
           style="fill:#f4a640;fill-opacity:1;fill-rule:nonzero;stroke:none"
           id="path14478" />
        <path
           d="m 15275.567,1281.9955 c 0.18,82.4279 0.445,164.0931 0.574,243.8664 -93.222,15.4425 -176.23,38.9072 -249.926,68.8163 -393.818,159.8226 -522.682,504.1622 -542.93,771.323 160.514,17.12 321.281,34.3791 486.212,52.1343 45.679,-176.9712 129.975,-319.2364 306.681,-425.7497 0.254,116.9597 0.528,217.8461 0.761,318.7471 0.279,137.6371 -1.74,275.4693 1.988,413.1642 1.235,46.2248 -11.163,70.7262 -50.905,86.8549 -3.888,1.5774 -8.026,3.0135 -12.372,4.5346 -37.316,11.9792 -74.037,25.1787 -110.019,39.7812 -116.848,47.4202 -225.579,110.0425 -317.563,201.1572 -243.575,241.4663 -284.022,538.7272 -193.695,847.8994 84.426,288.9296 303.97,449.0448 598.699,504.6606 19.659,3.7038 39.335,6.9134 58.934,11.1282 7.273,1.672 14.116,4.9794 27.436,9.7955 0.148,64.6726 0.34,131.2797 0.497,203.7411 92.336,-0.2377 178.369,-0.5929 275.648,-0.6454 -0.2,-48.592 3.003,-98.0803 -1.303,-146.9532 -3.396,-38.5341 7.96,-57.5022 33.975,-68.0599 8.944,-3.6293 19.63,-6.2627 32.037,-8.3766 68.975,-11.4431 134.317,-29.1997 195.415,-53.9952 130.597,-53 241.621,-138.4563 326.01,-266.1575 65.522,-98.8736 105.408,-207.7817 122.816,-335.3143 -160.637,-20.9616 -315.826,-41.2135 -478.83,-62.6741 -35.062,131.5327 -90.866,239.6016 -222.467,300.7975 -3.56,-20.9453 -8.496,-36.4649 -8.553,-52.0174 -0.803,-210.4316 0.381,-420.9398 -2.307,-631.3368 -0.518,-40.6758 11.388,-58.6501 44.299,-72.0061 4.369,-1.7722 9.133,-3.4628 14.275,-5.0633 73.166,-23.6079 145.922,-49.4838 217.257,-78.4345 28.168,-11.4309 56.039,-23.4719 83.699,-35.9139 343.467,-154.235 466.214,-449.122 424.761,-799.0563 -50.147,-421.6076 -281.638,-663.9988 -698.68,-755.3997 -76.131,-16.8041 -98.028,-49.2904 -91.516,-120.32 4.765,-51.5815 0.692,-104.1993 0.57,-161.5857 -91.246,0.2819 -177.258,0.3861 -271.478,0.6581 m 356.222,1398.8843 c -23.655,9.5994 -48.823,17.8662 -75.526,24.5664 -0.573,-247.7611 -1.091,-488.487 -1.672,-729.6734 168.024,15.7738 303.546,164.4743 319.666,347.5175 13.768,156.74 -76.099,290.0717 -242.468,357.5895 m -357.546,1317.6553 c -155.365,-63.2576 -251.354,-199.0407 -243.605,-332.145 7.683,-133.8071 93.82,-255.1604 207.324,-301.4668 11.304,-4.5877 22.926,-8.3309 34.72,-11.4137 0.537,211.5131 0.991,423.3033 1.561,645.0255"
           style="fill:#fce3a5;fill-opacity:1;fill-rule:nonzero;stroke:none;stroke-width:2.25507"
           id="path14728-7" />
        <ellipse
           style="display:none;fill:none;fill-opacity:1;stroke:#e2881e;stroke-width:75;stroke-linecap:square;stroke-dasharray:none;stroke-opacity:1"
           id="path22420"
           cx="15414.516"
           cy="-2964.9431"
           transform="scale(1,-1)"
           rx="2710.5886"
           ry="2717.9868" />
      </g>
    </g>
  </g>
</svg>
